LUCKY LUKE - DAISY TOWN [DivX - Ita Mp3] Western [TNT Village]

S01e00 - Episodio pilota

.: LOCANDINA :.

[img]http://www.budterence.it/img_video/dvd/dvd_fra/_luke.jpg[/img]

[url]http://forum.tntvillage.scambioetico.org/tntforum/index.php?showtopic=241701[/url]

.: SCHEDA :.

Origine:.....Italia
Anno:.......1990
Durata:....92 minuti
Regia:......Terence Hill
Titolo originale:.Lucky Luke
Curiosità:...Basato sui fumetti di Morris & Goscinny
IMDb: [url]http://www.imdb.com/title/tt0102351/[/url]

Attori:
Terence Hill - Lucky Luke
Nancy Morgan - Lotta Legs
Fritz Sperberg - Averill Dalton
Dominic Barto - William Dalton
Bo Gray - Jack Dalton
Arsenio 'Sonny' Trinidad - Ming La Pu
Mark Hardwick - Hank
Neil Summers - Deputy Virgil
Ron Carey - Joe Dalton
Buff Douthitt - Sindaco
Sky Fabin - Digger Graves
Marc Mouchet - Seth Schultz
Radha Delamarter - Martha Schultz
Robin Westphal - Corinne
Deborah Mansy - Belle

Sceneggiatura:...Lori Hill
Fotografia:.....Carlo Tafani, Gianfranco Transunto
Musiche:.......Aaron Schroeder & David Grover
Tema musicale:
'Lucky luke rides again' è stata composta e cantata da Roger Miller,
'The Lonesomest Cowboy in the West' è stata composta ed eseguita da Arlo Guthrie
Montaggio:......Eugenio Alabiso
Costumi:.......Vera Marzot
Casting:.......Sarah C. Koeppe
Produttore:....Lucio Bompani
Produzione:....Paloma Films & Reteitalia


.: TRAMA :.

Lucky Luke (Terence Hill) è il pistolero più veloce del west, più veloce anche della sua stessa ombra.
Esercita la funzione di sceriffo in una cittadina chiamata Daisy Town, situata nel vero west americano, dove chi ha la voce più grossa la fa ancora da padrone.
Jolly Jumper è il cavallo di Lucky Luke, ma non solo! E' anche la mente del paese: filosofeggia, gioca a scacchi con Lucky Luke e gli dà anche preziosi consigli.
Un'unica ombra aleggia sul tranquillo villaggio di cowboy: i fratelli Dalton, una banda di malviventi sempre alla ricerca di una banca da rapinare.
Ma Lucky Luke vigila su di loro, impedendo che riescano a farla sempre franca.
La presenza femminile è assicurata da Lotta Leggs, la proprietaria del saloon.
Spera sempre di conquistare il cuore di Lucky Luke, del quale è innamorata, ma lui sembra totalmente incapace di dimostrarle l'affetto che lei tanto richiede.

0. Daisy Town
Il primo episodio vuole la nascita della pace tra i bianchi e gli indiani, seguita dalla nascita del paese di Daisy Town e dei suoi problemi: risse e i Dalton.
Lucky Luke viene nominato sceriffo e deve far rispettare la legge, evitando le rapine. I Dalton, anche travestiti da indiani, iniziano a combinare qualche casino in paese, e solo Luke riesce a porvi rimedio.


.: SCREENSHOTS :.

[img]http://img545.imageshack.us/img545/9458/terence1.png[/img]
[img]http://img51.imageshack.us/img51/562/terence2c.png[/img]
[img]http://img268.imageshack.us/img268/7478/terence3.png[/img]
[img]http://img15.imageshack.us/img15/2952/terence4.png[/img]


.: DATI TECNICI :.

General
Complete name                    : Lucky Luke - 00 - Daisy Town (episodio pilota).avi
Format                           : AVI
Format/Info                      : Audio Video Interleave
File size                        : 703 MiB
Duration                         : 1h 28mn
Overall bit rate                 : 1 115 Kbps

Video
ID                               : 0
Format                           : MPEG-4 Visual
Format profile                   : Advanced Simple@L5
Format settings, BVOP            : Yes
Format settings, QPel            : No
Format settings, GMC             : No warppoints
Format settings, Matrix          : Custom
Codec ID                         : DIVX
Codec ID/Info                    : Project Mayo
Codec ID/Hint                    : DivX 4
Duration                         : 1h 28mn
Bit rate                         : 1 057 Kbps
Width                            : 576 pixels
Height                           : 368 pixels
Display aspect ratio             : 1.565
Frame rate                       : 25.000 fps
Resolution                       : 8 bits
Colorimetry                      : 4:2:0
Scan type                        : Progressive
Bits/(Pixel*Frame)               : 0.199
Stream size                      : 666 MiB (95%)
Title                            : Lucky Luke - Daisy Town [REPACKED by HoHoHo]
Writing library                  : XviD 1.1.0 (UTC 2005-11-22)

Audio
ID                               : 1
Format                           : MPEG Audio
Format version                   : Version 1
Format profile                   : Layer 3
Codec ID                         : 55
Codec ID/Hint                    : MP3
Duration                         : 1h 26mn
Bit rate mode                    : Variable
Bit rate                         : 48.4 Kbps
Nominal bit rate                 : 50.0 Kbps
Channel(s)                       : 1 channel
Sampling rate                    : 32.0 KHz
Stream size                      : 30.0 MiB (4%)
Alignment                        : Aligned on interleaves
Interleave, duration             : 37 ms (0.92 video frame)
Interleave, preload duration     : 214 ms
Title                            : Italiano
Writing library                  : LAME3.98a
Encoding settings                : -m m -V 4 -q 3 -lowpass 11.3 --abr 50[/color]


.: NOTE :.

- Emule Found
- Released by Darayava